<svg width="27" height="27" viewBox="0 0 27 27" fill="none" xmlns="http://www.w3.org/2000/svg">
<path d="M5.0625 5.0625H25.3125L22.7812 16.0312H7.59375M22.7812 19.4062H8.4375L4.21875 1.6875H1.6875" stroke="#EC6F00" stroke-width="2" stroke-linecap="round" stroke-linejoin="round"/>
<path d="M21.0938 24.4688C22.0257 24.4688 22.7812 23.7132 22.7812 22.7812C22.7812 21.8493 22.0257 21.0938 21.0938 21.0938C20.1618 21.0938 19.4062 21.8493 19.4062 22.7812C19.4062 23.7132 20.1618 24.4688 21.0938 24.4688Z" stroke="#EC6F00" stroke-width="2" stroke-linecap="round" stroke-linejoin="round"/>
<path d="M10.125 24.4688C11.057 24.4688 11.8125 23.7132 11.8125 22.7812C11.8125 21.8493 11.057 21.0938 10.125 21.0938C9.19302 21.0938 8.4375 21.8493 8.4375 22.7812C8.4375 23.7132 9.19302 24.4688 10.125 24.4688Z" stroke="#EC6F00" stroke-width="2" stroke-linecap="round" stroke-linejoin="round"/>
</svg>
